<svg width="16" height="16" viewBox="0 0 16 16" fill="none" xmlns="http://www.w3.org/2000/svg">
<path id="Search" fill-rule="evenodd" clip-rule="evenodd" d="M0 6.38953C0 9.91846 2.86053 12.7792 6.38918 12.7792C9.91782 12.7792 12.7784 9.91846 12.7784 6.38953C12.7784 2.86066 9.91782 -6.10352e-05 6.38918 -6.10352e-05C2.86053 -6.10352e-05 0 2.86066 0 6.38953ZM6.39133 11.4457C9.18369 11.4457 11.4473 9.18188 11.4473 6.3894C11.4473 3.5968 9.18369 1.33301 6.39133 1.33301C3.59898 1.33301 1.33533 3.5968 1.33533 6.3894C1.33533 9.18188 3.59898 11.4457 6.39133 11.4457ZM11.4338 11.433C11.6964 11.1703 12.1223 11.1703 12.3849 11.433L15.8027 14.851C16.0653 15.1136 16.0653 15.5394 15.8027 15.8021C15.54 16.0648 15.1142 16.0648 14.8515 15.8021L11.4338 12.3842C11.1712 12.1215 11.1712 11.6957 11.4338 11.433Z" fill="#999999"/>
</svg>
